<svg width="40" height="40" viewBox="0 0 40 40" fill="none" xmlns="http://www.w3.org/2000/svg">
<g id="up arrow ">
<path id="Vector" d="M25.6357 23.6475L24.9167 15.4293C24.8999 15.2766 24.8532 15.1287 24.7792 14.9941C24.6366 14.7222 24.3926 14.5174 24.1 14.4242C23.9546 14.3747 23.8008 14.3544 23.6476 14.3644L15.4294 15.0834C15.2761 15.0968 15.127 15.1403 14.9906 15.2113C14.8541 15.2824 14.733 15.3796 14.6341 15.4974C14.4344 15.7354 14.3374 16.043 14.3645 16.3525C14.3916 16.662 14.5405 16.9481 14.7785 17.1478C15.0165 17.3475 15.3241 17.4445 15.6336 17.4174L21.0486 16.9353L15.3568 23.7187C15.1579 23.9557 15.0613 24.262 15.0883 24.5703C15.1152 24.8785 15.2635 25.1634 15.5006 25.3623C15.7376 25.5612 16.0439 25.6578 16.3522 25.6308C16.6604 25.6038 16.9453 25.4555 17.1442 25.2185L22.8361 18.4352L23.3017 23.8517C23.3145 24.0052 23.3575 24.1546 23.4284 24.2914C23.4992 24.4281 23.5964 24.5495 23.7144 24.6485C23.8324 24.7475 23.9688 24.8221 24.1158 24.8682C24.2628 24.9142 24.4174 24.9306 24.5708 24.9166C24.7242 24.9038 24.8737 24.8607 25.0104 24.7899C25.1472 24.719 25.2686 24.6218 25.3676 24.5039C25.4666 24.3859 25.5412 24.2495 25.5872 24.1025C25.6332 23.9555 25.6497 23.8009 25.6357 23.6475Z" fill="#1A1A1A"/>
</g>
</svg>
