<svg width="20" height="20" viewBox="0 0 20 20" fill="none" xmlns="http://www.w3.org/2000/svg">
<path d="M9.99981 1.6665C5.4165 1.6665 1.6665 5.4165 1.6665 9.99983C1.6665 14.5831 5.4165 18.3331 9.99981 18.3331C14.5832 18.3331 18.3332 14.5831 18.3332 9.99983C18.3332 5.4165 14.5832 1.6665 9.99981 1.6665ZM13.4998 8.58316L9.49983 12.5831C9.1665 12.9165 8.6665 12.9165 8.33316 12.5831L6.49983 10.7498C6.1665 10.4165 6.1665 9.9165 6.49983 9.58316C6.83316 9.24983 7.33316 9.24983 7.6665 9.58316L8.9165 10.8331L12.3332 7.4165C12.6665 7.08316 13.1665 7.08316 13.4998 7.4165C13.8332 7.74983 13.8332 8.24983 13.4998 8.58316Z" fill="#FFD700"/>
</svg>
