<svg width="16" height="17" viewBox="0 0 16 17" fill="none" xmlns="http://www.w3.org/2000/svg">
<g clip-path="url(#clip0_1_91)">
<path d="M8.00001 1.76997C10.1374 1.76997 10.3883 1.77949 11.233 1.8176C12.0143 1.85254 12.4367 1.98275 12.7193 2.0939C13.0941 2.23999 13.3609 2.41149 13.6403 2.69097C13.9198 2.97044 14.0945 3.23722 14.2374 3.61197C14.3454 3.89462 14.4788 4.31701 14.5137 5.09827C14.5518 5.94305 14.5613 6.19394 14.5613 8.3313C14.5613 10.4687 14.5518 10.7195 14.5137 11.5643C14.4788 12.3456 14.3486 12.768 14.2374 13.0506C14.0913 13.4254 13.9198 13.6922 13.6403 13.9716C13.3609 14.2511 13.0941 14.4258 12.7193 14.5687C12.4367 14.6767 12.0143 14.8101 11.233 14.845C10.3883 14.8831 10.1374 14.8926 8.00001 14.8926C5.86265 14.8926 5.61175 14.8831 4.76697 14.845C3.98571 14.8101 3.56332 14.6799 3.28067 14.5687C2.90592 14.4226 2.63914 14.2511 2.35967 13.9716C2.08019 13.6922 1.90552 13.4254 1.76261 13.0506C1.65463 12.768 1.52124 12.3456 1.48631 11.5643C1.44819 10.7195 1.43867 10.4687 1.43867 8.3313C1.43867 6.19394 1.44819 5.94305 1.48631 5.09827C1.52124 4.31701 1.65145 3.89462 1.76261 3.61197C1.9087 3.23722 2.08019 2.97044 2.35967 2.69097C2.63914 2.41149 2.90592 2.23682 3.28067 2.0939C3.56332 1.98593 3.98571 1.85254 4.76697 1.8176C5.61175 1.77632 5.86582 1.76997 8.00001 1.76997ZM8.00001 0.328125C5.82771 0.328125 5.55459 0.337653 4.70028 0.375763C3.84915 0.413873 3.26797 0.550435 2.75983 0.747339C2.23263 0.950594 1.78801 1.22689 1.34339 1.67152C0.89877 2.11614 0.625646 2.56393 0.419214 3.08795C0.222311 3.59609 0.0857484 4.17727 0.047638 5.03158C0.0095276 5.88271 0 6.15583 0 8.32812C0 10.5004 0.0095276 10.7735 0.047638 11.6278C0.0857484 12.479 0.222311 13.0602 0.419214 13.5715C0.62247 14.0987 0.89877 14.5433 1.34339 14.9879C1.78801 15.4325 2.23581 15.7057 2.75983 15.9121C3.26797 16.109 3.84915 16.2456 4.70346 16.2837C5.55777 16.3218 5.82771 16.3313 8.00318 16.3313C10.1786 16.3313 10.4486 16.3218 11.3029 16.2837C12.154 16.2456 12.7352 16.109 13.2465 15.9121C13.7737 15.7088 14.2184 15.4325 14.663 14.9879C15.1076 14.5433 15.3807 14.0955 15.5871 13.5715C15.7841 13.0633 15.9206 12.4822 15.9587 11.6278C15.9968 10.7735 16.0064 10.5036 16.0064 8.32812C16.0064 6.15266 15.9968 5.88271 15.9587 5.0284C15.9206 4.17727 15.7841 3.59609 15.5871 3.08477C15.3839 2.55758 15.1076 2.11296 14.663 1.66834C14.2184 1.22372 13.7706 0.950594 13.2465 0.744163C12.7384 0.54726 12.1572 0.410697 11.3029 0.372587C10.4454 0.337653 10.1723 0.328125 8.00001 0.328125Z" fill="#4E4B66"/>
<path d="M8.00001 1.76997C10.1374 1.76997 10.3883 1.77949 11.233 1.8176C12.0143 1.85254 12.4367 1.98275 12.7193 2.0939C13.0941 2.23999 13.3609 2.41149 13.6403 2.69097C13.9198 2.97044 14.0945 3.23722 14.2374 3.61197C14.3454 3.89462 14.4788 4.31701 14.5137 5.09827C14.5518 5.94305 14.5613 6.19394 14.5613 8.3313C14.5613 10.4687 14.5518 10.7195 14.5137 11.5643C14.4788 12.3456 14.3486 12.768 14.2374 13.0506C14.0913 13.4254 13.9198 13.6922 13.6403 13.9716C13.3609 14.2511 13.0941 14.4258 12.7193 14.5687C12.4367 14.6767 12.0143 14.8101 11.233 14.845C10.3883 14.8831 10.1374 14.8926 8.00001 14.8926C5.86265 14.8926 5.61175 14.8831 4.76697 14.845C3.98571 14.8101 3.56332 14.6799 3.28067 14.5687C2.90592 14.4226 2.63914 14.2511 2.35967 13.9716C2.08019 13.6922 1.90552 13.4254 1.76261 13.0506C1.65463 12.768 1.52124 12.3456 1.48631 11.5643C1.44819 10.7195 1.43867 10.4687 1.43867 8.3313C1.43867 6.19394 1.44819 5.94305 1.48631 5.09827C1.52124 4.31701 1.65145 3.89462 1.76261 3.61197C1.9087 3.23722 2.08019 2.97044 2.35967 2.69097C2.63914 2.41149 2.90592 2.23682 3.28067 2.0939C3.56332 1.98593 3.98571 1.85254 4.76697 1.8176C5.61175 1.77632 5.86582 1.76997 8.00001 1.76997Z" fill="#4E4B66"/>
<path d="M7.99995 4.22173C5.73238 4.22173 3.89038 6.06056 3.89038 8.3313C3.89038 10.602 5.72921 12.4409 7.99995 12.4409C10.2707 12.4409 12.1095 10.602 12.1095 8.3313C12.1095 6.06056 10.2707 4.22173 7.99995 4.22173ZM7.99995 10.9958C6.52635 10.9958 5.33222 9.80172 5.33222 8.32812C5.33222 6.85452 6.52635 5.6604 7.99995 5.6604C9.47355 5.6604 10.6677 6.85452 10.6677 8.32812C10.6677 9.80172 9.47355 10.9958 7.99995 10.9958Z" fill="#DED1BD"/>
<path d="M12.2716 5.0157C12.8013 5.0157 13.2307 4.58629 13.2307 4.05658C13.2307 3.52688 12.8013 3.09747 12.2716 3.09747C11.7419 3.09747 11.3125 3.52688 11.3125 4.05658C11.3125 4.58629 11.7419 5.0157 12.2716 5.0157Z" fill="#DED1BD"/>
</g>
<defs>
<clipPath id="clip0_1_91">
<rect width="16" height="16" fill="white" transform="translate(0 0.328125)"/>
</clipPath>
</defs>
</svg>
