<svg width="48" height="48" viewBox="0 0 48 48" fill="none" xmlns="http://www.w3.org/2000/svg">
<path d="M42.6 20.1601C42.038 19.4854 41.3348 18.9423 40.54 18.569C39.7451 18.1958 38.8781 18.0016 38 18.0001H28.88L30 15.1401C30.4659 13.8879 30.621 12.5413 30.4521 11.2159C30.2832 9.89056 29.7954 8.62594 29.0304 7.53055C28.2654 6.43515 27.2461 5.54168 26.0599 4.92677C24.8737 4.31187 23.5561 3.99388 22.22 4.00009C21.8353 4.00089 21.459 4.11264 21.1361 4.32193C20.8133 4.53123 20.5577 4.82919 20.4 5.18009L14.7 18.0001H10C8.4087 18.0001 6.88258 18.6322 5.75736 19.7575C4.63214 20.8827 4 22.4088 4 24.0001V38.0001C4 39.5914 4.63214 41.1175 5.75736 42.2427C6.88258 43.368 8.4087 44.0001 10 44.0001H35.46C36.8636 43.9996 38.2227 43.5071 39.3006 42.6081C40.3786 41.7092 41.1073 40.4608 41.36 39.0801L43.9 25.0801C44.0571 24.2149 44.0221 23.3257 43.7974 22.4754C43.5728 21.6252 43.164 20.8348 42.6 20.1601ZM14 40.0001H10C9.46957 40.0001 8.96086 39.7894 8.58579 39.4143C8.21071 39.0392 8 38.5305 8 38.0001V24.0001C8 23.4697 8.21071 22.961 8.58579 22.5859C8.96086 22.2108 9.46957 22.0001 10 22.0001H14V40.0001ZM40 24.3601L37.46 38.3601C37.3748 38.826 37.127 39.2466 36.7608 39.5469C36.3945 39.8472 35.9336 40.0078 35.46 40.0001H18V20.4201L23.44 8.18009C24 8.34334 24.52 8.6209 24.9673 8.99525C25.4146 9.36961 25.7794 9.83262 26.0388 10.3551C26.2981 10.8775 26.4464 11.4481 26.4741 12.0307C26.5019 12.6133 26.4085 13.1954 26.2 13.7401L25.14 16.6001C24.9141 17.2046 24.8379 17.8548 24.9177 18.4952C24.9976 19.1355 25.2312 19.7471 25.5987 20.2776C25.9661 20.8081 26.4564 21.2418 27.0278 21.5418C27.5992 21.8417 28.2347 21.999 28.88 22.0001H38C38.2938 21.9996 38.5841 22.0639 38.8503 22.1883C39.1165 22.3128 39.352 22.4943 39.54 22.7201C39.7327 22.9427 39.8738 23.2052 39.9533 23.4887C40.0328 23.7722 40.0488 24.0697 40 24.3601Z" fill="#FFD700"/>
</svg>
